<svg width="512" height="512" xmlns="http://www.w3.org/2000/svg" class="ionicon">
 <title>Bulb</title>

 <g>
  <title>background</title>
  <rect fill="none" id="canvas_background" height="402" width="582" y="-1" x="-1"/>
 </g>
 <g>
  <title>Layer 1</title>
  <path id="svg_1" stroke-width="32" stroke-linejoin="round" stroke-linecap="round" stroke="#232323" fill="none" d="m304,384l0,-24c0,-29 31.54,-56.43 52,-76c28.84,-27.57 44,-64.61 44,-108c0,-80 -63.73,-144 -144,-144a143.6,143.6 0 0 0 -144,144c0,41.84 15.81,81.39 44,108c20.35,19.21 52,46.7 52,76l0,24m16,96l64,0m-80,-48l96,0m-48,-48l0,-128"/>
  <path id="svg_2" stroke-width="32" stroke-linejoin="round" stroke-linecap="round" stroke="#232323" fill="none" d="m294,240s-21.51,16 -38,16s-38,-16 -38,-16"/>
 </g>
</svg>